<?xml version="1.0" standalone="no"?>
<!DOCTYPE svg PUBLIC "-//W3C//DTD SVG 20010904//EN"
 "http://www.w3.org/TR/2001/REC-SVG-20010904/DTD/svg10.dtd">
<svg version="1.0" xmlns="http://www.w3.org/2000/svg"
 width="597.000000pt" height="597.000000pt" viewBox="0 0 597.000000 597.000000"
 preserveAspectRatio="xMidYMid meet">
<metadata>
Created by potrace 1.14, written by Peter Selinger 2001-2017
</metadata>
<g transform="translate(0.000000,597.000000) scale(0.100000,-0.100000)"
fill="#000000" stroke="none">
<path d="M5825 5048 c-112 -35 -792 -214 -885 -233 -8 -2 -109 -26 -225 -55
-115 -28 -241 -57 -280 -65 -38 -8 -79 -16 -90 -19 -51 -13 -103 -25 -130 -30
-125 -23 -252 -58 -262 -73 -10 -13 -13 -135 -13 -529 0 -464 2 -514 17 -529
14 -15 36 -16 187 -11 196 7 215 14 217 74 0 20 2 60 4 87 2 28 6 110 9 184 3
74 9 138 13 142 7 6 52 15 123 23 14 2 52 6 85 11 67 8 66 8 81 6 8 -1 11
-272 10 -973 l-1 -973 -25 2 c-14 1 -45 7 -69 13 -55 13 -79 6 -88 -28 -4 -15
-7 -152 -7 -306 l0 -279 29 -23 c17 -13 35 -24 40 -24 9 0 116 -42 190 -75 17
-7 59 -25 95 -39 36 -15 74 -31 85 -36 11 -5 107 -48 214 -95 184 -81 195 -84
218 -70 12 9 24 21 24 28 6 56 3 653 -3 676 -7 25 -17 32 -76 52 -37 13 -69
24 -72 24 -36 10 -35 -28 -35 1110 0 601 3 1096 6 1099 5 5 44 13 109 22 25 3
63 10 85 15 58 13 105 11 106 -3 8 -128 17 -348 18 -455 1 -134 1 -134 184
-129 78 3 156 5 174 5 67 2 63 -42 63 745 0 555 -3 716 -12 728 -20 24 -48 26
-113 6z"/>
<path d="M30 4995 c-9 -11 -12 -101 -12 -362 1 -415 0 -395 11 -412 5 -7 44
-20 87 -27 42 -7 80 -18 83 -23 11 -17 7 -2380 -4 -2389 -6 -5 -43 -21 -83
-36 -39 -15 -78 -36 -85 -46 -9 -13 -12 -108 -12 -385 l0 -367 23 -18 c19 -16
28 -17 55 -8 18 6 39 16 47 23 16 13 342 174 601 298 86 41 160 80 164 87 4 7
8 153 8 326 0 333 -2 344 -47 344 -12 0 -46 -7 -76 -16 -33 -10 -55 -12 -59
-6 -5 8 -7 680 -2 703 0 3 7 6 14 6 6 0 26 3 43 7 20 4 35 1 42 -7 5 -6 51
-93 102 -192 172 -333 226 -436 348 -660 128 -237 163 -294 180 -299 12 -4
397 88 397 95 0 0 9 2 20 3 42 6 138 35 148 45 7 7 11 107 11 276 0 283 -2
295 -50 297 -21 0 -220 -30 -244 -37 -10 -3 -26 13 -48 49 -17 30 -32 56 -32
59 0 3 -19 36 -41 73 -23 38 -52 87 -64 109 -34 62 -65 118 -148 268 -42 76
-77 140 -77 142 0 2 -14 27 -30 56 l-31 51 22 42 c30 58 149 278 159 296 5 8
35 62 67 120 68 125 74 135 182 323 l84 146 81 -5 c44 -3 91 -7 103 -9 13 -2
32 4 43 13 21 17 21 26 22 232 0 372 1 358 -24 374 -13 8 -41 17 -63 21 -97
14 -432 76 -653 120 -178 36 -202 36 -216 -1 -10 -27 -7 -614 4 -634 5 -10 23
-21 40 -24 16 -3 44 -9 60 -12 l31 -6 -54 -101 c-30 -56 -66 -122 -79 -147
-26 -47 -123 -233 -199 -380 -24 -47 -47 -87 -51 -91 -4 -3 -29 -5 -55 -4
l-48 1 0 397 0 398 60 -6 c33 -4 64 -9 68 -12 4 -3 19 3 32 11 l25 16 0 334
c0 369 4 350 -67 367 -71 18 -310 84 -508 140 -77 23 -147 42 -156 44 -9 2
-34 8 -55 14 -53 15 -79 14 -94 -4z"/>
<path d="M2095 4536 c-19 -14 -20 -29 -21 -289 -1 -196 2 -279 11 -290 13 -17
43 -25 118 -28 27 -2 50 -6 53 -10 8 -13 5 -1632 -3 -1640 -7 -7 -71 -17 -119
-18 -11 -1 -29 -7 -40 -15 -18 -14 -19 -29 -20 -271 -1 -209 2 -259 13 -271
14 -13 36 -19 58 -14 5 1 35 4 65 6 30 2 71 6 90 9 79 9 139 15 200 20 36 3
94 7 130 10 36 2 119 7 185 10 89 5 124 10 137 22 16 15 18 39 18 257 -1 193
-3 245 -15 260 -12 15 -28 19 -92 20 l-78 1 -2 153 c0 83 2 153 5 153 4 1 95
2 202 3 213 3 289 10 350 31 22 8 42 14 45 14 3 1 21 8 41 16 20 8 39 15 41
15 18 0 147 98 187 141 157 171 228 392 229 719 1 172 -1 211 -23 319 -64 331
-239 541 -507 612 -61 16 -116 21 -253 24 -345 6 -794 26 -941 40 -30 4 -52 0
-64 -9z m1113 -644 c125 -41 182 -147 182 -342 0 -207 -58 -316 -191 -366 -34
-13 -87 -18 -226 -20 -164 -3 -182 -1 -187 14 -10 36 -5 717 6 723 17 11 380
2 416 -9z"/>
</g>
</svg>
